<?xml version="1.0" encoding="UTF-8"?>
<svg width="50" height="50" viewBox="0 0 50 50" xmlns="http://www.w3.org/2000/svg">
    <!-- 大脑轮廓 -->
    <path d="M15,35 C5,30 5,15 15,10 C25,5 35,5 35,15 C45,20 45,30 35,35 C25,40 25,40 15,35" 
          fill="#ffffff" stroke="#ED5D29" stroke-width="2"/>
    
    <!-- 心形 -->
    <path d="M25,30 L23,28 C18,24 16,22 16,19 C16,17 18,15 20,15 C22,15 24,16 25,18 C26,16 28,15 30,15 C32,15 34,17 34,19 C34,22 32,24 27,28 L25,30 Z" 
          fill="#ED5D29"/>
</svg> 