<?xml version="1.0" encoding="UTF-8"?>
<svg width="40" height="40" viewBox="0 0 40 40" xmlns="http://www.w3.org/2000/svg">
    <!-- 音符 -->
    <path d="M15,10 L15,25 C15,28 12,30 10,30 C8,30 6,28 6,26 C6,24 8,22 10,22 C11,22 12,22.5 13,23 L13,10 L25,8 L25,20 C25,23 22,25 20,25 C18,25 16,23 16,21 C16,19 18,17 20,17 C21,17 22,17.5 23,18 L23,8" 
          fill="none" stroke="#ED5D29" stroke-width="2"/>
    
    <!-- 舞者 -->
    <circle cx="30" cy="15" r="3" fill="#ED5D29"/>
    <path d="M30,18 L30,25 M26,20 L34,20 M30,25 L26,32 M30,25 L34,32" 
          stroke="#ED5D29" stroke-width="2"/>
</svg> 